HIERARCHY
ROOT Hips
{
	OFFSET -14.64140 90.27770 -84.91600
	CHANNELS 6 Xposition Yposition Zposition Zrotation Xrotation Yrotation
	JOINT Spine
	{
		OFFSET 0.00000 13.20850 -1.60436
		CHANNELS 3 Zrotation Xrotation Yrotation
		JOINT Spine1
		{
			OFFSET 0.00000 8.61716 0.00000
			CHANNELS 3 Zrotation Xrotation Yrotation
			JOINT Spine2
			{
				OFFSET 0.00000 8.61717 0.00000
				CHANNELS 3 Zrotation Xrotation Yrotation
				JOINT Spine3
				{
					OFFSET 0.00000 8.61717 0.00000
					CHANNELS 3 Zrotation Xrotation Yrotation
					JOINT Neck
					{
						OFFSET 0.00000 11.07920 1.10792
						CHANNELS 3 Zrotation Xrotation Yrotation
						JOINT Neck1
						{
							OFFSET 0.00000 7.08032 0.00000
							CHANNELS 3 Zrotation Xrotation Yrotation
							JOINT Head
							{
								OFFSET 0.00000 7.08031 0.00000
								CHANNELS 3 Zrotation Xrotation Yrotation
								End site
								{
									OFFSET 0.00000 0.00000 0.00000
								}
							}
						}
					}
					JOINT RightShoulder
					{
						OFFSET -0.01000 7.91373 5.19711
						CHANNELS 3 Zrotation Xrotation Yrotation
						JOINT RightArm
						{
							OFFSET -18.41580 0.00000 0.00000
							CHANNELS 3 Zrotation Xrotation Yrotation
							JOINT RightForeArm
							{
								OFFSET -29.11090 0.00000 0.00000
								CHANNELS 3 Zrotation Xrotation Yrotation
								JOINT RightHand
								{
									OFFSET -24.65040 0.00000 0.00000
									CHANNELS 3 Zrotation Xrotation Yrotation
									JOINT RightHandThumb1
									{
										OFFSET -5.35114 -0.85590 3.97906
										CHANNELS 3 Zrotation Xrotation Yrotation
										JOINT RightHandThumb2
										{
											OFFSET -4.52789 0.00000 0.00000
											CHANNELS 3 Zrotation Xrotation Yrotation
											JOINT RightHandThumb3
											{
												OFFSET -2.46976 0.00000 0.00000
												CHANNELS 3 Zrotation Xrotation Yrotation
												End site
												{
													OFFSET 0.00000 0.00000 0.00000
												}
											}
										}
									}
									JOINT RightHandIndex1
									{
										OFFSET -14.26970 0.00000 2.88139
										CHANNELS 3 Zrotation Xrotation Yrotation
										JOINT RightHandIndex2
										{
											OFFSET -5.48836 0.00000 0.00000
											CHANNELS 3 Zrotation Xrotation Yrotation
											JOINT RightHandIndex3
											{
												OFFSET -3.01859 0.00000 0.00000
												CHANNELS 3 Zrotation Xrotation Yrotation
												End site
												{
													OFFSET 0.00000 0.00000 0.00000
												}
											}
										}
									}
									JOINT RightHandMiddle1
									{
										OFFSET -14.26970 0.00000 -0.09147
										CHANNELS 3 Zrotation Xrotation Yrotation
										JOINT RightHandMiddle2
										{
											OFFSET -6.17441 0.00000 0.00000
											CHANNELS 3 Zrotation Xrotation Yrotation
											JOINT RightHandMiddle3
											{
												OFFSET -3.56743 0.00000 0.00000
												CHANNELS 3 Zrotation Xrotation Yrotation
												End site
												{
													OFFSET 0.00000 0.00000 0.00000
												}
											}
										}
									}
									JOINT RightHandRing1
									{
										OFFSET -12.69180 0.00000 -3.06433
										CHANNELS 3 Zrotation Xrotation Yrotation
										JOINT RightHandRing2
										{
											OFFSET -5.62556 0.00000 0.00000
											CHANNELS 3 Zrotation Xrotation Yrotation
											JOINT RightHandRing3
											{
												OFFSET -3.56744 0.00000 0.00000
												CHANNELS 3 Zrotation Xrotation Yrotation
												End site
												{
													OFFSET 0.00000 0.00000 0.00000
												}
											}
										}
									}
									JOINT RightHandPinky1
									{
										OFFSET -11.11390 0.00000 -6.03719
										CHANNELS 3 Zrotation Xrotation Yrotation
										JOINT RightHandPinky2
										{
											OFFSET -4.52789 0.00000 0.00000
											CHANNELS 3 Zrotation Xrotation Yrotation
											JOINT RightHandPinky3
											{
												OFFSET -2.46976 0.00000 0.00000
												CHANNELS 3 Zrotation Xrotation Yrotation
												End site
												{
													OFFSET 0.00000 0.00000 0.00000
												}
											}
										}
									}
								}
							}
						}
					}
					JOINT LeftShoulder
					{
						OFFSET 0.01000 7.91373 5.19711
						CHANNELS 3 Zrotation Xrotation Yrotation
						JOINT LeftArm
						{
							OFFSET 18.41580 0.00000 0.00000
							CHANNELS 3 Zrotation Xrotation Yrotation
							JOINT LeftForeArm
							{
								OFFSET 29.11090 0.00000 0.00000
								CHANNELS 3 Zrotation Xrotation Yrotation
								JOINT LeftHand
								{
									OFFSET 24.65040 0.00000 0.00000
									CHANNELS 3 Zrotation Xrotation Yrotation
									JOINT LeftHandThumb1
									{
										OFFSET 5.35114 -0.85590 3.97906
										CHANNELS 3 Zrotation Xrotation Yrotation
										JOINT LeftHandThumb2
										{
											OFFSET 4.52789 0.00000 0.00000
											CHANNELS 3 Zrotation Xrotation Yrotation
											JOINT LeftHandThumb3
											{
												OFFSET 2.46977 0.00000 0.00000
												CHANNELS 3 Zrotation Xrotation Yrotation
												End site
												{
													OFFSET 0.00000 0.00000 0.00000
												}
											}
										}
									}
									JOINT LeftHandIndex1
									{
										OFFSET 14.26970 0.00000 2.88139
										CHANNELS 3 Zrotation Xrotation Yrotation
										JOINT LeftHandIndex2
										{
											OFFSET 5.48836 0.00000 0.00000
											CHANNELS 3 Zrotation Xrotation Yrotation
											JOINT LeftHandIndex3
											{
												OFFSET 3.01859 0.00000 0.00000
												CHANNELS 3 Zrotation Xrotation Yrotation
												End site
												{
													OFFSET 0.00000 0.00000 0.00000
												}
											}
										}
									}
									JOINT LeftHandMiddle1
									{
										OFFSET 14.26970 0.00000 -0.09147
										CHANNELS 3 Zrotation Xrotation Yrotation
										JOINT LeftHandMiddle2
										{
											OFFSET 6.17440 0.00000 0.00000
											CHANNELS 3 Zrotation Xrotation Yrotation
											JOINT LeftHandMiddle3
											{
												OFFSET 3.56744 0.00000 0.00000
												CHANNELS 3 Zrotation Xrotation Yrotation
												End site
												{
													OFFSET 0.00000 0.00000 0.00000
												}
											}
										}
									}
									JOINT LeftHandRing1
									{
										OFFSET 12.69180 0.00000 -3.06433
										CHANNELS 3 Zrotation Xrotation Yrotation
										JOINT LeftHandRing2
										{
											OFFSET 5.62556 0.00000 0.00000
											CHANNELS 3 Zrotation Xrotation Yrotation
											JOINT LeftHandRing3
											{
												OFFSET 3.56744 0.00000 0.00000
												CHANNELS 3 Zrotation Xrotation Yrotation
												End site
												{
													OFFSET 0.00000 0.00000 0.00000
												}
											}
										}
									}
									JOINT LeftHandPinky1
									{
										OFFSET 11.11390 0.00000 -6.03719
										CHANNELS 3 Zrotation Xrotation Yrotation
										JOINT LeftHandPinky2
										{
											OFFSET 4.52789 0.00000 0.00000
											CHANNELS 3 Zrotation Xrotation Yrotation
											JOINT LeftHandPinky3
											{
												OFFSET 2.46976 0.00000 0.00000
												CHANNELS 3 Zrotation Xrotation Yrotation
												End site
												{
													OFFSET 0.00000 0.00000 0.00000
												}
											}
										}
									}
								}
							}
						}
					}
					JOINT pCube4
					{
						OFFSET 0.00000 10.91090 1.10792
						CHANNELS 3 Zrotation Xrotation Yrotation
						End site
						{
							OFFSET 0.00000 0.00000 0.00000
						}
					}
				}
			}
		}
	}
	JOINT RightUpLeg
	{
		OFFSET -9.98441 0.00000 0.00000
		CHANNELS 3 Zrotation Xrotation Yrotation
		JOINT RightLeg
		{
			OFFSET 0.00000 -42.11790 0.00000
			CHANNELS 3 Zrotation Xrotation Yrotation
			JOINT RightFoot
			{
				OFFSET 0.00000 -45.00020 -0.00001
				CHANNELS 3 Zrotation Xrotation Yrotation
				JOINT RightForeFoot
				{
					OFFSET 0.00000 -3.74820 0.00000
					CHANNELS 3 Zrotation Xrotation Yrotation
					JOINT RightToeBase
					{
						OFFSET 0.00000 0.06325 14.43120
						CHANNELS 3 Zrotation Xrotation Yrotation
						End site
						{
							OFFSET 0.00000 0.00000 0.00000
						}
					}
				}
			}
		}
	}
	JOINT LeftUpLeg
	{
		OFFSET 9.98441 0.00000 0.00000
		CHANNELS 3 Zrotation Xrotation Yrotation
		JOINT LeftLeg
		{
			OFFSET 0.00000 -42.11800 0.00000
			CHANNELS 3 Zrotation Xrotation Yrotation
			JOINT LeftFoot
			{
				OFFSET 0.00000 -45.00070 0.00000
				CHANNELS 3 Zrotation Xrotation Yrotation
				JOINT LeftForeFoot
				{
					OFFSET 0.00000 -3.74824 0.00000
					CHANNELS 3 Zrotation Xrotation Yrotation
					JOINT LeftToeBase
					{
						OFFSET 0.00000 0.06325 14.43110
						CHANNELS 3 Zrotation Xrotation Yrotation
						End site
						{
							OFFSET 0.00000 0.00000 0.00000
						}
					}
				}
			}
		}
	}
}
MOTION
Frames: 4
Frame Time: 0.050000
-0.041993198410524124 -0.04148756600780004 0.015952013937684615 0.032219925821301156 -0.04297232526892288 0.02495894075614004 -0.6778759097550735 2.659461067652102 -1.2355861029532813 -0.9507742175520256 3.6821153390737997 0.4080638548160665 -1.1589638088326846 -1.1341642312324576 -0.38588239407564595 0.46101642759606454 0.157452598425956 -0.7065256250014896 0.9843941399399958 11.303188308505256 -3.3469717773932417 0.18269705721600332 -1.6842267281528478 -9.24981166526131 1.3098508998326932 -18.20683543429163 -0.7943858094787926 -6.779959694199812 2.465152421347454 -14.92640844105243 78.70236212386573 -1.535336741918067 15.198252707081538 35.097439036762374 -0.9708348684881931 97.69289020485496 3.420729078784493 0.01560243366336122 -1.7075162185798904 4.513597330679188 -0.08036209745147938 -1.590115879183854 -0.02807051160953166 0.006786786765534731 -56.22677097155274 0.012208607744878077 -0.02329138424824892 -56.205535832884415 -38.80814365662493 -0.02563390254833974 0.005484843305339655 -0.02813875467535075 -0.0032554960790276335 0.026576373120683425 0.01999928334809077 -0.0032817441783940695 -0.02419773925444768 -36.67966276247424 -0.03255073682419801 0.013220354164560875 0.019960924193091374 -0.006756648486233047 -0.024246876753381098 0.004548525216301056 0.03219016777404215 -0.01061634557796161 -19.73354906034322 0.01498676089428245 -0.047467994959415026 -0.035381698071109226 0.00717702977004512 -0.02261433190214262 0.037501236394648335 -0.04764190619590239 0.02523546641995171 24.0658644064485 -0.0386622201526059 0.02390573372854991 28.829891219899842 0.007224832584754067 -0.007231206260964812 28.898986237063855 0.022412921719335958 0.01719109282795033 5.325405242829949 1.4551673436863544 11.916324662339962 -71.42193138471715 28.14960157451524 -7.398347351712434 -18.093162849382356 -3.404012077924744 -85.0556949161624 -9.205682230248895 -4.60975561367093 3.551385375495655 -0.5091590793923172 0.11401485397484834 -8.077584779028065 0.01599146325671096 -0.03584683451744316 44.575867794814506 -0.0022696542358501136 -0.015780174400633375 44.554574977930486 12.498168961319493 -0.0316311990912003 0.010029937370605521 -0.04482934908147105 0.0022660130567506136 -0.03352473551238312 0.032786126611645434 -0.03719625008168921 0.037216974501594176 11.127176441732813 -0.021506830738150493 -0.0016552445839166702 0.010130378188446669 -0.038743550777722416 -0.027731727959543415 0.022545329767022684 0.0269036993369346 0.004224581670546888 4.765992200238194 -0.03567942845162502 0.03421945176077898 -0.04025935505975024 -0.03509261485923527 -0.016391769231546966 0.019247468002650703 0.007727804368855355 0.04583704998920794 -5.5514021527109065 0.007589013690011995 -0.015369527642007984 -6.720450947220478 -0.01813013834852447 -0.03441848559879663 -6.678799130348963 0.01694351691218361 0.0014525287265848535 -0.005042696973792104 0.010808724807094982 -0.04787409612750458 8.083923002931328 3.503800616813153 -19.24653614070495 0.04173436741702356 10.390645474653608 0.03472512797558937 -5.591709096014332 -15.629951825990684 3.2188085708799687 -0.043771298287308934 -0.02197546011011481 -0.00435828978891996 0.027649425673106368 4.698707556263555 0.003048096967313487 12.480556335006677 -8.252137761092035 6.929444400263108 0.01497950508979033 46.3852295536057 0.02856103933138963 -4.346056691518621 -14.760546672632358 -3.8387764587393143 -0.03603744547337018 -0.014025000007837048 0.04749712511053103 0.019419617255163838 -10.77939423631747 0.002651089452314164 
0.018577613324060643 0.009441828421240183 -0.020328182646996415 -0.01651184343760682 -0.028960358742785602 -0.006966944546628408 -0.9255819758127709 2.44095885170631 -1.2055785244064836 -0.9095568570378626 3.7171095442581863 0.36604469388174526 -1.1737661812140252 -1.1479794004432655 -0.45540909925941264 0.3734461355129476 0.11883647844564064 -0.7040511008455342 0.8956624078522883 11.22812362069944 -3.2061332757603336 0.1998586251281318 -1.6172610101119842 -9.128282989610952 1.3179662055659314 -18.133413281993203 -0.8192468452318742 -6.6230617223060095 2.5158274247185983 -14.856240381608316 77.85084312030007 -1.1716469262696134 15.563367663430897 30.578603267900554 -0.7732188889098836 99.60256512429862 3.037682980114556 0.051892698442054214 -1.2884399503860775 4.517643596982024 -0.1286979930083976 -1.573762420960565 -0.025552614373291375 0.017304458978597708 -56.199136065203795 -0.013671023929417625 -0.01793122176097232 -56.26083651586059 -38.75472007245443 0.04980891469757724 0.009738057510177513 -0.028193755341051462 -2.640012788305639e-05 -0.03678369258766477 -0.01179100765644699 -0.0033089425925617406 0.04443521967746371 -36.7394045397212 0.017378988197706138 0.02820779501089469 -0.008477381523432626 -0.02447682385806834 -0.04096871147007925 0.0012645073039304938 0.04207399445962497 -0.0019361652380511076 -19.805354045412248 -0.008214793178022982 -0.03191383713526038 0.005015769863388463 -0.04998048417535364 -0.0459168247965103 0.014882143478437582 -0.02979519169114898 0.024260020502656778 24.035599931214417 0.029860967691965303 0.01701835402600418 28.909556314473594 0.0066940344781212385 0.017252755019949977 28.89741427255407 0.02310791709006547 -0.04456071766711555 5.139771576714974 1.4155573617265513 11.94818409658322 -71.07694578619757 29.064095032232512 -7.537310534765324 -13.20651369467007 -3.6748234348687676 -85.44071780079844 -9.319215779924736 -4.375988165599085 3.4000233915430496 -0.4407018019882341 0.09996537923090898 -8.139453764917542 -0.02841182460817124 -0.041095220233535804 44.57950251917397 -0.015299507050361578 -0.009106115237789396 44.57889054741425 12.498004203179844 -0.018817851291252116 0.0057205525038573094 -0.03417195690205649 0.04290714727978901 0.01782089032382455 0.009711375147033184 0.03444555994671415 0.030007400287278822 11.127683376715522 -0.02496204941114476 -0.0292800065699886 0.03537795607639732 0.00551314839247913 -0.0011640834853719948 0.001796056831998537 0.02453989658583885 -0.02865093009979862 4.747096327199248 0.017785179216764306 -0.022786337295545807 -0.03019443136858148 0.008341851388273 0.013456922210296221 -0.006119526942821946 0.00816929479013857 0.03415354704566268 -5.629989369455727 -0.007251891362187508 -0.022721298020497018 -6.715562273948775 -0.024838938809292783 0.0021127202697565264 -6.677662121259895 0.04946937622565777 -0.012265340902598969 0.022391830863589535 -0.010455391277206585 0.0025739536716008335 8.026025972578609 3.462895039330528 -19.24534059629047 0.010182706628786495 10.41133545605438 0.016461487379143068 -5.6613631486961085 -15.615406548388158 3.2360297908093103 0.004637654582844697 -0.04421105711327251 0.007649533890019564 0.018500614752811735 4.683929512620444 0.01887181572811575 12.481559335239165 -8.221978795938366 6.845739081094532 0.024724818735412366 46.34026706297206 0.02848046406356959 -4.305481603119153 -14.760012998177666 -3.871733006693148 0.03680786146026268 0.012887606423377506 0.039513143639327605 0.011246943017132752 -10.777456421783539 -0.04438199549524003 
0.001398300548546207 0.04978676544039809 0.022969938299371967 -0.01603396448541278 0.012385942467843249 -0.026071897531502256 -1.0790030260021497 2.333196352525551 -1.2457757788293544 -0.9381961874615312 3.6238266375661428 0.4046539622441073 -1.124248090996361 -1.2461288744421777 -0.4269344326355363 0.3161629477087038 0.08106378793994504 -0.6507287442807091 0.9584789094051592 11.148347088535969 -3.140936122237704 0.18781459857317637 -1.6609755671667195 -8.86363613266076 1.2653134026788229 -18.050800333851775 -0.831259216885707 -6.604580469231134 2.473708564394318 -14.739673117803077 77.1924156589165 -0.49097500319661547 16.018216136330825 27.260650714876455 -0.855575362552263 101.12098496118796 2.725084857208102 0.004743394760542252 -1.0496836285669822 4.54141189384343 -0.1209102676734127 -1.590750753443582 0.036689344744383276 0.020635282322320148 -56.24182011586889 0.017642674097248255 -0.02899244011318802 -56.23628175121453 -38.8030848331509 0.04890635296726219 0.027894580374075453 -0.023698684875491323 -0.027835462698843676 0.016096391362302367 0.033259256577774905 0.030914917512361473 -0.041122433646119075 -36.67081272882981 0.03804841622924436 0.012070046015748138 0.002271394443866873 0.02286230938212054 -0.01870325517885305 0.0059559311760913865 -0.029950235172700335 -0.0102239162008777 -19.75102979240374 0.03015985059151778 0.012152426751988247 -0.03158779651024988 -0.02497865426879958 -0.03094672524415842 -0.006146432668133251 -0.033697930337582775 -0.013309606496074202 24.075667015013032 -0.009067114603096681 0.03624400197418468 28.82132181456038 0.018155979746504937 -0.03066296868609158 28.8485175971404 0.008592376420565106 0.02180384407689505 5.20996770122853 1.4204414514497292 11.855899347555713 -70.90084381484488 29.827688694011613 -7.853717834558545 -10.199830368404557 -3.820923706976127 -86.31569699497318 -9.422570725678318 -4.247883009408375 3.26351724265933 -0.5201047382476688 0.10774290918795068 -8.136744632051268 0.026113589135124633 -0.00954089723788572 44.60542652851029 -0.013043975561157937 0.010878827245313442 44.56894027353245 12.494211679425307 0.018637383222399113 -0.0221270598643585 0.014229881081293302 0.043240273937711 0.043851352782326325 0.0017551260814589883 -0.029424457699852625 0.02608847004372294 11.106219646414516 -0.01838453567839225 0.008184785771072694 -0.020823520563591175 0.0038733408749555697 -0.040325173512461676 -0.015380312337164526 -0.047778707211815874 -0.030664447401820696 4.761329863539372 0.03570334259656861 0.021281586323817128 0.0019269546573610732 -0.014383334544538535 0.008628110734539849 -0.02511403956111627 -0.013032407474381252 0.020991275967098426 -5.552597616156431 0.04901136990871307 0.04163427979811807 -6.761490370339839 -0.014082402454104016 -0.03288040182026372 -6.694481484443727 -0.045726679572575826 0.009427187124683703 0.032957032974992424 0.002260512607957431 -0.0162936796126953 8.056333762855866 3.4748703001718 -19.204797219759044 0.0035208167817373827 10.37345884423825 0.003475243453474091 -5.617235931225845 -15.615365977244066 3.1597098846075014 0.03777001734553421 0.04049568307244161 -0.023533725788823363 -0.02721041862693672 4.721024323668836 0.008151742423694331 12.431568148984955 -8.256333767195883 6.842664997291281 0.04257237029001543 46.3552609895168 -0.03891676475859593 -4.314822704911063 -14.780262280845763 -3.7982506430493306 0.026041022236180673 -0.020959304689518083 -0.027159160309330486 0.023804527993220713 -10.764464569868682 0.02292458418747598 
-0.029449455648891006 -0.001003326498410696 0.02785886527146278 0.019370960256408127 0.013992943843953297 0.038642236339189374 -1.2409847960468279 2.0781403526695303 -1.1828783226990551 -0.8857309687951642 3.6189529856438263 0.3609081285826346 -1.1780927156606487 -1.2210802122187476 -0.35585229814179725 0.2655413938104667 0.12659025995141152 -0.6894488320820198 0.9220964498211783 11.193049846895589 -3.0190509625127997 0.1867200986166839 -1.5088522041433032 -8.703820856024667 1.2942995128335493 -17.952142195308372 -0.8197769144775376 -6.641618692552127 2.517126760229091 -14.684894133619474 76.86227773038428 -0.2696885923548014 16.853882219532707 25.195273353734027 -0.8074151352154177 101.95804439047315 2.6272082725456936 0.035016135896893 -0.8555380050969352 4.494342481598229 -0.14770644461558632 -1.6083891444991734 -0.021206943425180994 -0.0468278301237468 -56.238467146995525 0.034129530685037504 0.009046808658566477 -56.24766883415744 -38.75144024345737 -0.03978193755586619 0.04579275378604183 -0.0009547737971490184 -0.04366571079801196 0.0486733919216242 0.040367081984029204 0.026802711033085003 0.03312798310935377 -36.699622045625944 0.0038495692187246475 -0.018139510019954792 0.03525179651959353 0.0270364031692901 -0.013890513359039161 0.04860047295104519 0.02612432767177474 -0.02383180481113717 -19.723265862012706 0.03359586692305199 0.013212462239739388 0.02091643730941787 0.01178770220450429 -0.0018665732137668743 0.01924699590795718 -0.013092994268538822 0.0326652133704369 24.016478661284644 0.0015003635450527187 -0.010840372110832141 28.835114683316082 0.013247650948972603 0.0004767694325901093 28.816452207536916 0.04705729063923062 -0.007556017561889729 5.176266066784212 1.3448297580828992 11.815198564158248 -70.81746430600177 30.29205749447542 -8.227691921169034 -8.661574050403491 -3.870348502192098 -87.57323554908548 -9.403849280474473 -4.122648024012195 3.0287361955622 -0.5050176132996942 0.10264883621811774 -8.08905648730414 -0.010986043381393699 -0.04296381875722438 44.54997926188408 -0.01776765974516403 -0.04255968328735752 44.58623081742183 12.436684951518911 -0.00425740359261707 0.0027472039756263975 0.007440658218839813 0.018952094832815704 0.03294061115737781 0.017339997501937696 -0.03155516525042337 -0.034378164008640286 11.113339245923939 0.012063665668334285 0.04580013289409092 0.00615615036254313 -0.005462804536791741 -0.01757505250908333 -0.028267135631855945 -0.013761315333100927 -0.037895165023080116 4.801009333235237 -0.018362450881854914 -0.034417590797163986 -0.024869999836752265 -0.045368966562741336 0.01380555044200127 -0.036353406037075764 0.019400474828572163 -0.04544089943116032 -5.6340722400016405 0.021557416291433082 -0.03390221589505879 -6.698987603459478 -0.001382266181201159 -0.012929438838923007 -6.736981088169792 -0.019618971078764407 -0.02792090259922403 0.041370618503308816 0.0011571655830557384 0.013512504337617384 8.07659334490545 3.476716607258324 -19.24150862211111 0.023006024191823862 10.400513387752744 -0.03101475978573463 -5.5716922912447995 -15.679740933111713 3.1490411928082342 0.018616202964766498 0.03017507845975836 -0.018280985333332243 -0.042185328698782686 4.686016645028039 -0.01178372579511552 12.450854304017563 -8.205441601458501 6.872009874258608 -0.033196534078908796 46.407593756277286 0.019639222812722377 -4.313946308311204 -14.785961704680519 -3.8558601405409663 -0.037980741669579425 -0.035883807743847876 0.0025725076900998053 -0.03789080873118289 -10.766162194795413 -0.024232457946187475 
